<svg xmlns="http://www.w3.org/2000/svg" viewBox="0 0 1200 760"><defs><linearGradient id="g" x1="0" y1="0" x2="1" y2="1"><stop stop-color="#f8fbff"/><stop offset="1" stop-color="#dbeafe"/></linearGradient><filter id="s"><feDropShadow dx="0" dy="18" stdDeviation="22" flood-color="#0f1728" flood-opacity=".12"/></filter></defs><rect width="1200" height="760" fill="url(#g)"/><rect x="70" y="70" width="1060" height="620" rx="44" fill="#fff" filter="url(#s)"/><rect x="70" y="70" width="230" height="620" rx="44" fill="#0f2f5f"/><g font-family="-apple-system,BlinkMacSystemFont,'Segoe UI','PingFang SC',sans-serif"><text x="115" y="135" font-size="28" font-weight="850" fill="#fff">Health Case</text><text x="115" y="172" font-size="18" fill="#bfdbfe">Copilot</text><text x="350" y="135" font-size="36" font-weight="850" fill="#0f1728">Client Health OS</text><text x="350" y="176" font-size="21" fill="#64748b">报告快读 · 分诊 · 医生路径 · 理赔资料</text></g><g fill="#eef4ff"><rect x="340" y="225" width="180" height="100" rx="24"/><rect x="545" y="225" width="180" height="100" rx="24"/><rect x="750" y="225" width="180" height="100" rx="24"/><rect x="955" y="225" width="130" height="100" rx="24"/></g><g font-family="-apple-system,BlinkMacSystemFont,'Segoe UI',sans-serif" fill="#1d4ed8" font-weight="800"><text x="370" y="280" font-size="24">84%</text><text x="575" y="280" font-size="24">2h</text><text x="780" y="280" font-size="24">91%</text><text x="985" y="280" font-size="24">3</text></g><g fill="#f8fafc" stroke="#e2e8f0"><rect x="340" y="365" width="430" height="230" rx="30"/><rect x="795" y="365" width="290" height="230" rx="30"/></g><g font-family="-apple-system,BlinkMacSystemFont,'Segoe UI','PingFang SC',sans-serif"><text x="375" y="420" font-size="26" font-weight="850" fill="#0f1728">当前健康事件</text><text x="375" y="462" font-size="19" fill="#64748b">港险客户 · 体检异常 · 专科评估路径</text><text x="375" y="512" font-size="19" fill="#64748b">资料清单、沟通话术与后续跟进</text><text x="830" y="420" font-size="26" font-weight="850" fill="#0f1728">Next actions</text><text x="830" y="462" font-size="19" fill="#64748b">Today · 收集报告</text><text x="830" y="505" font-size="19" fill="#64748b">24h · 匹配医生</text><text x="830" y="548" font-size="19" fill="#64748b">48h · 理赔准备</text></g><g fill="#60a5fa"><rect x="115" y="240" width="130" height="16" rx="8" opacity=".75"/><rect x="115" y="290" width="100" height="16" rx="8" opacity=".5"/><rect x="115" y="340" width="150" height="16" rx="8" opacity=".65"/><rect x="115" y="390" width="120" height="16" rx="8" opacity=".45"/></g></svg>