<svg xmlns="http://www.w3.org/2000/svg" viewBox="0 0 1200 760"><defs><linearGradient id="g" x1="0" y1="0" x2="1" y2="1"><stop stop-color="#f9fbff"/><stop offset="0.55" stop-color="#eaf3ff"/><stop offset="1" stop-color="#d9edff"/></linearGradient><linearGradient id="b" x1="0" y1="0" x2="1" y2="1"><stop stop-color="#2563eb"/><stop offset="1" stop-color="#38bdf8"/></linearGradient><filter id="s" x="-20%" y="-20%" width="140%" height="140%"><feDropShadow dx="0" dy="24" stdDeviation="28" flood-color="#0f1728" flood-opacity=".12"/></filter></defs><rect width="1200" height="760" fill="url(#g)"/><circle cx="1030" cy="120" r="190" fill="#ffffff" opacity=".54"/><circle cx="180" cy="610" r="260" fill="#bfdbfe" opacity=".32"/><path d="M0 540 C240 460 360 700 610 560 S940 390 1200 500 V760 H0Z" fill="#fff" opacity=".72"/><g stroke="#93c5fd" stroke-width="2" opacity=".7"><path d="M220 270 C360 180 505 210 650 330 S905 510 1010 360" fill="none"/><path d="M260 470 C430 365 570 440 715 355 S890 260 1040 300" fill="none"/></g><g filter="url(#s)"><rect x="135" y="150" width="290" height="170" rx="34" fill="#fff"/><rect x="775" y="180" width="300" height="175" rx="34" fill="#fff"/><rect x="460" y="395" width="310" height="185" rx="34" fill="#fff"/></g><g font-family="-apple-system,BlinkMacSystemFont,'Segoe UI','PingFang SC',sans-serif" fill="#0f1728"><text x="165" y="205" font-size="31" font-weight="800">Healthcare</text><text x="165" y="250" font-size="22" fill="#64748b">医生 · 患者 · 服务交付</text><text x="805" y="235" font-size="31" font-weight="800">Advisory</text><text x="805" y="280" font-size="22" fill="#64748b">保险 · 家办 · 高净值客户</text><text x="500" y="455" font-size="31" font-weight="800">AI Workflow</text><text x="500" y="500" font-size="22" fill="#64748b">工作流 · 数据 · 产品化</text></g><g fill="url(#b)"><circle cx="605" cy="345" r="58"/><circle cx="280" cy="340" r="14"/><circle cx="925" cy="385" r="14"/><circle cx="620" cy="590" r="14"/></g><text x="605" y="356" text-anchor="middle" font-family="-apple-system,BlinkMacSystemFont,'Segoe UI',sans-serif" font-size="22" font-weight="900" fill="#fff">GM</text></svg>