<svg xmlns="http://www.w3.org/2000/svg" viewBox="0 0 900 560"><defs><linearGradient id="g" x1="0" y1="0" x2="1" y2="1"><stop stop-color="#f8fbff"/><stop offset="1" stop-color="#dbeafe"/></linearGradient><filter id="s"><feDropShadow dx="0" dy="18" stdDeviation="18" flood-color="#0f1728" flood-opacity=".12"/></filter></defs><rect width="900" height="560" fill="url(#g)"/><circle cx="720" cy="120" r="160" fill="#fff" opacity=".62"/><circle cx="170" cy="450" r="170" fill="#bfdbfe" opacity=".28"/><g filter="url(#s)"><rect x="105" y="145" width="275" height="245" rx="34" fill="#fff"/><rect x="455" y="115" width="330" height="285" rx="34" fill="#fff"/></g><g font-family="-apple-system,BlinkMacSystemFont,'Segoe UI','PingFang SC',sans-serif"><text x="140" y="205" font-size="32" font-weight="850" fill="#0f1728">Doctor IP</text><text x="140" y="248" font-size="21" fill="#64748b">专病页面 · 患者转化</text><text x="495" y="180" font-size="27" font-weight="800" fill="#0f1728">Growth OS</text><text x="495" y="220" font-size="19" fill="#64748b">内容、报价、CRM 与复盘</text></g><g fill="#2563eb"><circle cx="245" cy="315" r="48"/><rect x="510" y="270" width="210" height="16" rx="8" opacity=".85"/><rect x="510" y="310" width="145" height="16" rx="8" opacity=".55"/><rect x="510" y="350" width="180" height="16" rx="8" opacity=".72"/></g><g stroke="#60a5fa" stroke-width="7" fill="none" stroke-linecap="round"><path d="M308 310 C405 230 465 250 520 270"/><path d="M308 350 C420 440 520 390 660 380"/></g></svg>