<svg xmlns="http://www.w3.org/2000/svg" viewBox="0 0 900 560"><defs><linearGradient id="g" x1="0" y1="0" x2="1" y2="1"><stop stop-color="#f9fbff"/><stop offset="1" stop-color="#dbeafe"/></linearGradient><filter id="s"><feDropShadow dx="0" dy="18" stdDeviation="18" flood-color="#0f1728" flood-opacity=".12"/></filter></defs><rect width="900" height="560" fill="url(#g)"/><circle cx="710" cy="110" r="150" fill="#fff" opacity=".62"/><path d="M0 420 C220 330 390 480 590 390 S770 260 900 320 V560 H0Z" fill="#fff" opacity=".7"/><g filter="url(#s)"><rect x="120" y="130" width="280" height="255" rx="34" fill="#fff"/><rect x="475" y="150" width="300" height="230" rx="34" fill="#fff"/></g><g font-family="-apple-system,BlinkMacSystemFont,'Segoe UI','PingFang SC',sans-serif"><text x="155" y="195" font-size="32" font-weight="850" fill="#0f1728">Advisor Care</text><text x="155" y="238" font-size="21" fill="#64748b">专家安排 · 理赔资料 · 沟通</text><text x="510" y="215" font-size="27" font-weight="800" fill="#0f1728">Health Event</text><text x="510" y="258" font-size="19" fill="#64748b">把客户问题转成下一步路径</text></g><g fill="#2563eb"><circle cx="250" cy="315" r="44"/><rect x="535" y="295" width="170" height="16" rx="8" opacity=".85"/><rect x="535" y="330" width="118" height="16" rx="8" opacity=".55"/></g><g stroke="#60a5fa" stroke-width="7" fill="none" stroke-linecap="round"><path d="M330 320 C420 260 475 300 540 300"/><path d="M330 345 C430 420 505 380 620 375"/></g></svg>